<svg xmlns="http://www.w3.org/2000/svg" viewBox="0 0 36 36" enable-background="new 0 0 36 36"><path style="fill:var(--color, black);" d="M18 7.9l2.2 5.8.7 1.9 2 .1 6.3.3-4.9 3.9-1.5 1.2.5 1.9 1.6 6-5.2-3.4-1.7-1.1-1.6 1.1-5.3 3.5 1.7-6.1.5-1.9-1.5-1.2-4.9-3.9 6.3-.3 1.9-.1.7-1.8 2.2-5.9m.1-7.1c-.3 0-.6.2-.7.5l-4.4 11.4-12.2.5c-.4 0-.7.4-.7.8 0 .2.1.4.3.5l9.5 7.6-3.3 11.9c-.1.4.1.8.5.9h.2c.1 0 .3 0 .4-.1l10.3-6.7 10.2 6.6c.1.1.3.1.4.1.4 0 .8-.3.8-.8v-.2l-3.2-11.7 9.5-7.7c.3-.3.4-.7.1-1.1-.1-.2-.3-.3-.5-.3l-12.3-.3-4.2-11.4c-.1-.3-.4-.5-.7-.5z"/></svg>
