<svg  xmlns="http://www.w3.org/2000/svg" width="36" height="36" viewBox="0 0 36 36">
  <path style="fill:var(--color, black);" d="M18.059,5.082l3.554,9.505,10.219.481-7.975,6.405L26.529,31.3l-8.534-5.568L9.437,31.347l2.7-9.873-7.974-6.4,10.2-.49ZM18.082.823a.738.738,0,0,0-.7.478l-4.412,11.35-12.2.585a.75.75,0,0,0-.434,1.334l9.523,7.642-3.23,11.8a.752.752,0,0,0,.725.951.742.742,0,0,0,.41-.125L18,28.122,28.187,34.77a.742.742,0,0,0,.408.125.752.752,0,0,0,.725-.949L26.131,22.213l9.528-7.653a.75.75,0,0,0-.434-1.334l-12.2-.575L18.784,1.311A.738.738,0,0,0,18.082.823Z"/>
  </svg>