<svg xmlns="http://www.w3.org/2000/svg" viewBox="0 0 1200 20" enable-background="new 0 0 1200 20" width="1200" height="20">
    <style type="text/css">
      .st0{
        fill-opacity:0;
        stroke:#000000;
        stroke-width:2;
        stroke-opacity:0.1;
      }
      .st1{
        fill-opacity:0;
        stroke:#1473E6;
        stroke-width:2;
      }
    </style>
    <path class="st0" d="M10 3.5c3.9 0 7 3.1 7 7s-3.1 7-7 7-7-3.1-7-7 3.1-7 7-7z" />
    <path class="st1" d="M10 3.5c3.9 0 7 3.1 7 7" />
    <path class="st0" d="M30 3c3.9 0 7 3.1 7 7s-3.1 7-7 7-7-3.1-7-7 3.1-7 7-7z" />
    <path class="st1" d="M30.2 3c3.8.1 6.8 3.2 6.8 7 0 .8-.1 1.6-.4 2.3" />
    <path class="st0" d="M50 3c3.9 0 7 3.1 7 7s-3.1 7-7 7-7-3.1-7-7 3.1-7 7-7z" />
    <path class="st1" d="M50.4 3c3.7.2 6.6 3.3 6.6 7 0 1.6-.5 3-1.4 4.2" />
    <path class="st0" d="M70 3c3.9 0 7 3.1 7 7s-3.1 7-7 7-7-3.1-7-7 3.1-7 7-7z" />
    <path class="st1" d="M70.5 3c3.6.3 6.5 3.3 6.5 7 0 2.4-1.2 4.4-2.9 5.7" />
    <path class="st0" d="M90 3c3.9 0 7 3.1 7 7s-3.1 7-7 7-7-3.1-7-7 3.1-7 7-7z" />
    <path class="st1" d="M90.7 3c3.5.4 6.3 3.3 6.3 7 0 3.1-2 5.7-4.7 6.6" />
    <path class="st0" d="M110 3c3.9 0 7 3.1 7 7s-3.1 7-7 7-7-3.1-7-7 3.1-7 7-7z" />
    <path class="st1" d="M110.9 3c3.4.5 6.1 3.4 6.1 7 0 3.7-2.9 6.8-6.6 7" />
    <path class="st0" d="M130 3c3.9 0 7 3.1 7 7s-3.1 7-7 7-7-3.1-7-7 3.1-7 7-7z" />
    <path class="st1" d="M131.1 3.1c3.3.5 5.9 3.4 5.9 6.9 0 3.9-3.1 7-7 7-.5 0-1 0-1.4-.1" />
    <path class="st0" d="M150 3c3.9 0 7 3.1 7 7s-3.1 7-7 7-7-3.1-7-7 3.1-7 7-7z" />
    <path class="st1" d="M151.3 3.1c3.3.6 5.7 3.5 5.7 6.9 0 3.9-3.1 7-7 7-1.1 0-2.2-.2-3.1-.7" />
    <path class="st0" d="M170 3c3.9 0 7 3.1 7 7s-3.1 7-7 7-7-3.1-7-7 3.1-7 7-7z" />
    <path class="st1" d="M171.4 3.1c3.2.7 5.6 3.5 5.6 6.9 0 3.9-3.1 7-7 7-1.7 0-3.2-.6-4.5-1.6" />
    <path class="st0" d="M190 3c3.9 0 7 3.1 7 7s-3.1 7-7 7-7-3.1-7-7 3.1-7 7-7z" />
    <path class="st1" d="M191.6 3.2c3.1.7 5.4 3.5 5.4 6.8 0 3.9-3.1 7-7 7-2.3 0-4.3-1.1-5.6-2.8" />
    <path class="st0" d="M210 3c3.9 0 7 3.1 7 7s-3.1 7-7 7-7-3.1-7-7 3.1-7 7-7z" />
    <path class="st1" d="M211.8 3.2c3 .8 5.2 3.5 5.2 6.8 0 3.9-3.1 7-7 7-2.8 0-5.2-1.6-6.3-4" />
    <path class="st0" d="M230 3c3.9 0 7 3.1 7 7s-3.1 7-7 7-7-3.1-7-7 3.1-7 7-7z" />
    <path class="st1" d="M232 3.3c2.9.9 5 3.5 5 6.7 0 3.9-3.1 7-7 7-3.3 0-6.1-2.3-6.8-5.4" />
    <path class="st0" d="M250 3c3.9 0 7 3.1 7 7s-3.1 7-7 7-7-3.1-7-7 3.1-7 7-7z" />
    <path class="st1" d="M252.2 3.3c2.8 1 4.8 3.6 4.8 6.7 0 3.9-3.1 7-7 7-3.8 0-6.8-2.9-7-6.7" />
    <path class="st0" d="M270 3c3.9 0 7 3.1 7 7s-3.1 7-7 7-7-3.1-7-7 3.1-7 7-7z" />
    <path class="st1" d="M272.3 3.4c2.7 1 4.7 3.6 4.7 6.6 0 3.9-3.1 7-7 7s-7-3.1-7-7v-1" />
    <path class="st0" d="M290 3c3.9 0 7 3.1 7 7s-3.1 7-7 7-7-3.1-7-7 3.1-7 7-7z" />
    <path class="st1" d="M292.5 3.5c2.6 1 4.5 3.6 4.5 6.5 0 3.9-3.1 7-7 7s-7-3.1-7-7c0-.7.1-1.4.3-2.1" />
    <path class="st0" d="M310 3c3.9 0 7 3.1 7 7s-3.1 7-7 7-7-3.1-7-7 3.1-7 7-7z" />
    <path class="st1" d="M312.7 3.5c2.6 1.1 4.3 3.6 4.3 6.5 0 3.9-3.1 7-7 7s-7-3.1-7-7c0-1.2.3-2.2.8-3.2" />
    <path class="st0" d="M330 3c3.9 0 7 3.1 7 7s-3.1 7-7 7-7-3.1-7-7 3.1-7 7-7z" />
    <path class="st1" d="M332.8 3.6c2.5 1.1 4.2 3.5 4.2 6.4 0 3.9-3.1 7-7 7s-7-3.1-7-7c0-1.5.5-2.9 1.4-4.1" />
    <path class="st0" d="M350 3c3.9 0 7 3.1 7 7s-3.1 7-7 7-7-3.1-7-7 3.1-7 7-7z" />
    <path class="st1" d="M353 3.7c2.4 1.1 4 3.5 4 6.3 0 3.9-3.1 7-7 7s-7-3.1-7-7c0-1.9.8-3.6 2-4.9" />
    <path class="st0" d="M370 3c3.9 0 7 3.1 7 7s-3.1 7-7 7-7-3.1-7-7 3.1-7 7-7z" />
    <path class="st1" d="M375.5 5.6c1 1.2 1.5 2.7 1.5 4.4 0 3.9-3.1 7-7 7s-7-3.1-7-7c0-2.3 1.1-4.2 2.7-5.6" />
    <path class="st0" d="M390 3c3.9 0 7 3.1 7 7s-3.1 7-7 7-7-3.1-7-7 3.1-7 7-7z" />
    <path class="st1" d="M396.8 8.2c.1.6.2 1.2.2 1.8 0 3.9-3.1 7-7 7s-7-3.1-7-7c0-2.6 1.4-4.8 3.5-6" />
    <path class="st0" d="M410 3c3.9 0 7 3.1 7 7s-3.1 7-7 7-7-3.1-7-7 3.1-7 7-7z" />
    <path class="st1" d="M417 11c-.5 3.4-3.4 6-7 6-3.9 0-7-3.1-7-7 0-2.9 1.7-5.4 4.2-6.4" />
    <path class="st0" d="M430 3c3.9 0 7 3.1 7 7s-3.1 7-7 7-7-3.1-7-7 3.1-7 7-7z" />
    <path class="st1" d="M436.1 13.4c-1.2 2.2-3.5 3.6-6.1 3.6-3.9 0-7-3.1-7-7 0-3.2 2.1-5.8 5-6.7" />
    <path class="st0" d="M450 3c3.9 0 7 3.1 7 7s-3.1 7-7 7-7-3.1-7-7 3.1-7 7-7z" />
    <path class="st1" d="M454.6 15.2c-1.3 1.1-2.8 1.8-4.6 1.8-3.9 0-7-3.1-7-7 0-3.4 2.5-6.3 5.7-6.9" />
    <path class="st0" d="M470 3c3.9 0 7 3.1 7 7s-3.1 7-7 7-7-3.1-7-7 3.1-7 7-7z" />
    <path class="st1" d="M472.8 16.4c-.9.4-1.8.6-2.8.6-3.9 0-7-3.1-7-7 0-3.7 2.8-6.7 6.5-7" />
    <path class="st0" d="M490 3c3.9 0 7 3.1 7 7s-3.1 7-7 7-7-3.1-7-7 3.1-7 7-7z" />
    <path class="st1" d="M490.8 17h-.8c-3.9 0-7-3.1-7-7s3.1-7 7-7h.1" />
    <path class="st0" d="M510 3c3.9 0 7 3.1 7 7s-3.1 7-7 7-7-3.1-7-7 3.1-7 7-7z" />
    <path class="st1" d="M508.9 16.9c-3.3-.5-5.9-3.4-5.9-6.9 0-3.9 3.1-7 7-7h.8" />
    <path class="st0" d="M530 3c3.9 0 7 3.1 7 7s-3.1 7-7 7-7-3.1-7-7 3.1-7 7-7z" />
    <path class="st1" d="M527.2 16.4c-2.5-1.1-4.2-3.5-4.2-6.4 0-3.9 3.1-7 7-7 .5 0 .9 0 1.4.1" />
    <path class="st0" d="M550 3c3.9 0 7 3.1 7 7s-3.1 7-7 7-7-3.1-7-7 3.1-7 7-7z" />
    <path class="st1" d="M545.8 15.6c-1.7-1.3-2.8-3.3-2.8-5.6 0-3.9 3.1-7 7-7 .7 0 1.3.1 1.9.2" />
    <path class="st0" d="M570 3c3.9 0 7 3.1 7 7s-3.1 7-7 7-7-3.1-7-7 3.1-7 7-7z" />
    <path class="st1" d="M564.7 14.6c-1.1-1.2-1.7-2.8-1.7-4.6 0-3.9 3.1-7 7-7 .9 0 1.6.1 2.4.4" />
    <path class="st0" d="M590 3c3.9 0 7 3.1 7 7s-3.1 7-7 7-7-3.1-7-7 3.1-7 7-7z" />
    <path class="st1" d="M583.9 13.4c-.6-1-.9-2.2-.9-3.4 0-3.9 3.1-7 7-7 1 0 2 .2 2.9.6" />
    <path class="st0" d="M610 3c3.9 0 7 3.1 7 7s-3.1 7-7 7-7-3.1-7-7 3.1-7 7-7z" />
    <path class="st1" d="M603.4 12.3c-.2-.7-.4-1.5-.4-2.3 0-3.9 3.1-7 7-7 1.2 0 2.3.3 3.3.8" />
    <path class="st0" d="M630 3c3.9 0 7 3.1 7 7s-3.1 7-7 7-7-3.1-7-7 3.1-7 7-7z" />
    <path class="st1" d="M623.1 11.2l-.1-1.2c0-3.9 3.1-7 7-7 1.4 0 2.6.4 3.7 1.1" />
    <path class="st0" d="M650 3c3.9 0 7 3.1 7 7s-3.1 7-7 7-7-3.1-7-7 3.1-7 7-7z" />
    <path class="st1" d="M643 10c0-3.9 3.1-7 7-7 1.5 0 2.9.5 4.1 1.3" />
    <path class="st0" d="M670 3c3.9 0 7 3.1 7 7s-3.1 7-7 7-7-3.1-7-7 3.1-7 7-7z" />
    <path class="st1" d="M663 9.1c.5-3.4 3.4-6.1 7-6.1 1.6 0 3.1.6 4.3 1.5" />
    <path class="st0" d="M690 3c3.9 0 7 3.1 7 7s-3.1 7-7 7-7-3.1-7-7 3.1-7 7-7z" />
    <path class="st1" d="M683.2 8.2c.8-3 3.5-5.2 6.8-5.2 1.8 0 3.4.7 4.6 1.7" />
    <path class="st0" d="M710 3c3.9 0 7 3.1 7 7s-3.1 7-7 7-7-3.1-7-7 3.1-7 7-7z" />
    <path class="st1" d="M703.5 7.4c1.1-2.6 3.6-4.4 6.5-4.4 1.9 0 3.6.8 4.9 2" />
    <path class="st0" d="M730 3c3.9 0 7 3.1 7 7s-3.1 7-7 7-7-3.1-7-7 3.1-7 7-7z" />
    <path class="st1" d="M723.8 6.7c1.2-2.2 3.5-3.7 6.2-3.7 2 0 3.9.9 5.1 2.2" />
    <path class="st0" d="M750 3c3.9 0 7 3.1 7 7s-3.1 7-7 7-7-3.1-7-7 3.1-7 7-7z" />
    <path class="st1" d="M744.2 6.1c1.3-1.9 3.4-3.1 5.8-3.1 2.1 0 4.1 1 5.3 2.5" />
    <path class="st0" d="M770 3c3.9 0 7 3.1 7 7s-3.1 7-7 7-7-3.1-7-7 3.1-7 7-7z" />
    <path class="st1" d="M764.5 5.7c1.3-1.7 3.3-2.7 5.5-2.7s4.2 1.1 5.5 2.7" />
    <path class="st0" d="M790 3c3.9 0 7 3.1 7 7s-3.1 7-7 7-7-3.1-7-7 3.1-7 7-7z" />
    <path class="st1" d="M784.9 5.2c1.3-1.3 3.1-2.2 5.1-2.2 2.4 0 4.4 1.2 5.7 2.9" />
    <path class="st0" d="M810 3c3.9 0 7 3.1 7 7s-3.1 7-7 7-7-3.1-7-7 3.1-7 7-7z" />
    <path class="st1" d="M805.3 4.8c1.3-1.2 2.9-1.8 4.7-1.8 2.5 0 4.6 1.3 5.8 3.1" />
    <path class="st0" d="M830 3c3.9 0 7 3.1 7 7s-3.1 7-7 7-7-3.1-7-7 3.1-7 7-7z" />
    <path class="st1" d="M825.6 4.5c1.2-1 2.8-1.5 4.4-1.5 2.5 0 4.7 1.4 6 3.4" />
    <path class="st0" d="M850 3c3.9 0 7 3.1 7 7s-3.1 7-7 7-7-3.1-7-7 3.1-7 7-7z" />
    <path class="st1" d="M845.9 4.3c1.2-.8 2.6-1.3 4.1-1.3 2.6 0 4.9 1.4 6.1 3.6" />
    <path class="st0" d="M870 3c3.9 0 7 3.1 7 7s-3.1 7-7 7-7-3.1-7-7 3.1-7 7-7z" />
    <path class="st1" d="M866.3 4.1c1.1-.7 2.4-1.1 3.7-1.1 2.7 0 5.1 1.5 6.2 3.8" />
    <path class="st0" d="M890 3c3.9 0 7 3.1 7 7s-3.1 7-7 7-7-3.1-7-7 3.1-7 7-7z" />
    <path class="st1" d="M886.6 3.9c1-.5 2.2-.9 3.4-.9 2.8 0 5.2 1.6 6.3 4" />
    <path class="st0" d="M910 3c3.9 0 7 3.1 7 7s-3.1 7-7 7-7-3.1-7-7 3.1-7 7-7z" />
    <path class="st1" d="M906.9 3.7c.9-.5 2-.7 3.1-.7 2.8 0 5.4 1.7 6.4 4.2" />
    <path class="st0" d="M930 3c3.9 0 7 3.1 7 7s-3.1 7-7 7-7-3.1-7-7 3.1-7 7-7z" />
    <path class="st1" d="M927.2 3.6c.8-.4 1.8-.6 2.8-.6 2.9 0 5.5 1.8 6.5 4.4" />
    <path class="st0" d="M950 3c3.9 0 7 3.1 7 7s-3.1 7-7 7-7-3.1-7-7 3.1-7 7-7z" />
    <path class="st1" d="M947.4 3.5c.8-.3 1.7-.5 2.6-.5 3 0 5.6 1.9 6.6 4.6" />
    <path class="st0" d="M970 3c3.9 0 7 3.1 7 7s-3.1 7-7 7-7-3.1-7-7 3.1-7 7-7z" />
    <path class="st1" d="M967.6 3.4c.7-.2 1.5-.4 2.4-.4 3.1 0 5.7 2 6.7 4.8" />
    <path class="st0" d="M990 3c3.9 0 7 3.1 7 7s-3.1 7-7 7-7-3.1-7-7 3.1-7 7-7z" />
    <path class="st1" d="M987.9 3.3c.7-.2 1.4-.3 2.1-.3 3.1 0 5.8 2.1 6.7 5" />
    <path class="st0" d="M1010 3c3.9 0 7 3.1 7 7s-3.1 7-7 7-7-3.1-7-7 3.1-7 7-7z" />
    <path class="st1" d="M1008.1 3.2c.6-.2 1.3-.2 1.9-.2 3.2 0 5.9 2.2 6.8 5.2" />
    <path class="st0" d="M1030 3c3.9 0 7 3.1 7 7s-3.1 7-7 7-7-3.1-7-7 3.1-7 7-7z" />
    <path class="st1" d="M1028.3 3.2c.5-.1 1.1-.2 1.7-.2 3.3 0 6.1 2.3 6.8 5.4" />
    <path class="st0" d="M1050 3c3.9 0 7 3.1 7 7s-3.1 7-7 7-7-3.1-7-7 3.1-7 7-7z" />
    <path class="st1" d="M1048.5 3.1c.5-.1 1-.1 1.5-.1 3.4 0 6.2 2.4 6.9 5.6" />
    <path class="st0" d="M1070 3c3.9 0 7 3.1 7 7s-3.1 7-7 7-7-3.1-7-7 3.1-7 7-7z" />
    <path class="st1" d="M1068.7 3.1c.4-.1.9-.1 1.3-.1 3.4 0 6.3 2.5 6.9 5.7" />
    <path class="st0" d="M1090 3c3.9 0 7 3.1 7 7s-3.1 7-7 7-7-3.1-7-7 3.1-7 7-7z" />
    <path class="st1" d="M1088.9 3.1c.3 0 .7-.1 1.1-.1 3.5 0 6.4 2.6 6.9 5.9" />
    <path class="st0" d="M1110 3c3.9 0 7 3.1 7 7s-3.1 7-7 7-7-3.1-7-7 3.1-7 7-7z" />
    <path class="st1" d="M1109.1 3h.9c3.6 0 6.5 2.7 7 6.1" />
    <path class="st0" d="M1130 3c3.9 0 7 3.1 7 7s-3.1 7-7 7-7-3.1-7-7 3.1-7 7-7z" />
    <path class="st1" d="M1129.3 3h.7c3.6 0 6.6 2.8 7 6.3" />
    <path class="st0" d="M1150 3c3.9 0 7 3.1 7 7s-3.1 7-7 7-7-3.1-7-7 3.1-7 7-7z" />
    <path class="st1" d="M1149.5 3h.5c3.7 0 6.7 2.8 7 6.5" />
    <path class="st0" d="M1170 3c3.9 0 7 3.1 7 7s-3.1 7-7 7-7-3.1-7-7 3.1-7 7-7z" />
    <path class="st1" d="M1169.6 3h.4c3.7 0 6.8 2.9 7 6.6" />
    <path class="st0" d="M1190 3c3.9 0 7 3.1 7 7s-3.1 7-7 7-7-3.1-7-7 3.1-7 7-7z" />
    <path class="st1" d="M1189.8 3h.2c3.8 0 6.9 3 7 6.8" />
</svg>
