<svg xmlns="http://www.w3.org/2000/svg" width="14" height="14" viewBox="0 0 14 14"><path d="M7 0a7 7 0 1 0 7 7 7 7 0 0 0-7-7zm.004 1.433a1.337 1.337 0 0 1 1.408 1.262q.003.063 0 .127A1.31 1.31 0 0 1 7.005 4.23a1.33 1.33 0 0 1-1.409-1.409 1.336 1.336 0 0 1 1.281-1.389q.064-.003.128 0zM9 10.563a.438.438 0 0 1-.438.437H5.438A.438.438 0 0 1 5 10.562V9.438A.438.438 0 0 1 5.438 9H6V6.75h-.563A.438.438 0 0 1 5 6.312v-.875A.438.438 0 0 1 5.438 5h2.125A.438.438 0 0 1 8 5.438V9h.563A.438.438 0 0 1 9 9.438z"/></svg>