<svg xmlns="http://www.w3.org/2000/svg" width="14" height="14" viewBox="0 0 14 14"><path d="M7 0a7 7 0 1 0 7 7 7 7 0 0 0-7-7zm.095 12.438a1.414 1.414 0 1 1 0-2.825 1.377 1.377 0 0 1 1.472 1.403 1.357 1.357 0 0 1-1.472 1.422zm1.712-6.19l-.1.09c-.394.358-.841.765-.841 1.016a1.075 1.075 0 0 0 .179.583l.073.12-.057.186a.313.313 0 0 1-.284.163H6.436a.479.479 0 0 1-.326-.101 1.628 1.628 0 0 1-.422-1.092c0-.726.467-1.174 1.112-1.795.098-.095.196-.182.288-.264.314-.281.507-.463.507-.655 0-.133 0-.538-.893-.538a3.295 3.295 0 0 0-1.58.397.337.337 0 0 1-.327-.008l-.118-.074-.028-.191V2.832a.362.362 0 0 1 .197-.354A4.636 4.636 0 0 1 6.998 2c1.645 0 2.751.916 2.751 2.28a2.5 2.5 0 0 1-.942 1.967z"/></svg>