<svg xmlns="http://www.w3.org/2000/svg" height="36" viewBox="0 0 36 36" width="36"><path d="M18.059 5.082l3.554 9.505 10.219.481-7.975 6.405 2.672 9.827-8.534-5.568-8.558 5.615 2.7-9.873-7.974-6.4 10.2-.49zm.023-4.259a.738.738 0 0 0-.7.478l-4.412 11.35-12.2.585a.75.75 0 0 0-.434 1.334l9.523 7.642-3.23 11.8a.752.752 0 0 0 .725.951.742.742 0 0 0 .41-.125L18 28.122l10.187 6.648a.742.742 0 0 0 .408.125.752.752 0 0 0 .725-.949l-3.189-11.733 9.528-7.653a.75.75 0 0 0-.434-1.334l-12.2-.575-4.241-11.34a.738.738 0 0 0-.702-.488z"/></svg>