<!-- Generator: Adobe Illustrator 17.0.0, SVG Export Plug-In  -->
<svg version="1.1"
	 xmlns="http://www.w3.org/2000/svg" xmlns:xlink="http://www.w3.org/1999/xlink" xmlns:a="http://ns.adobe.com/AdobeSVGViewerExtensions/3.0/"
	 x="0px" y="0px" width="24px" height="24px" viewBox="0 0 24 24" enable-background="new 0 0 24 24" xml:space="preserve">
<defs>
</defs>
<path fill="#4D4D4D" d="M22,7.5C22,8.325,21.325,9,20.5,9h-17C2.675,9,2,8.325,2,7.5l0,0C2,6.675,2.675,6,3.5,6h17
	C21.325,6,22,6.675,22,7.5L22,7.5z"/>
<path fill="#4D4D4D" d="M22,12.5c0,0.825-0.675,1.5-1.5,1.5h-17C2.675,14,2,13.325,2,12.5l0,0C2,11.675,2.675,11,3.5,11h17
	C21.325,11,22,11.675,22,12.5L22,12.5z"/>
<path fill="#4D4D4D" d="M22,17.5c0,0.825-0.675,1.5-1.5,1.5h-17C2.675,19,2,18.325,2,17.5l0,0C2,16.675,2.675,16,3.5,16h17
	C21.325,16,22,16.675,22,17.5L22,17.5z"/>
</svg>
