<svg xmlns="http://www.w3.org/2000/svg" width="1280" height="12" viewBox="0 0 1280 12">
  <g>
    <path style="fill: #000;fill-opacity: 0.53;" d="M25.76,1.48a4.4,4.4,0,1,0,4.4,4.4A4.4,4.4,0,0,0,25.76,1.48Z"/>
    <path style="fill: #000;fill-opacity: 0.36;" d="M15.56,2.24A3.64,3.64,0,1,0,19.2,5.88,3.64,3.64,0,0,0,15.56,2.24Z"/>
    <path style="fill: #000;fill-opacity: 0.23;" d="M5.36,2.85a3,3,0,1,0,3,3A3,3,0,0,0,5.36,2.85Z"/>
  </g>
  <g>
    <path style="fill: #000;fill-opacity: 0.52;" d="M57.76,1.55a4.33,4.33,0,1,0,4.33,4.33A4.33,4.33,0,0,0,57.76,1.55Z"/>
    <path style="fill: #000;fill-opacity: 0.35;" d="M47.56,2.31a3.56,3.56,0,1,0,3.56,3.56A3.56,3.56,0,0,0,47.56,2.31Z"/>
    <path style="fill: #000;fill-opacity: 0.24;" d="M37.36,2.77a3.11,3.11,0,1,0,3.11,3.11A3.11,3.11,0,0,0,37.36,2.77Z"/>
  </g>
  <g>
    <path style="fill: #000;fill-opacity: 0.5;" d="M89.76,1.63A4.25,4.25,0,1,0,94,5.88,4.25,4.25,0,0,0,89.76,1.63Z"/>
    <path style="fill: #000;fill-opacity: 0.33;" d="M79.56,2.39A3.49,3.49,0,1,0,83,5.88,3.49,3.49,0,0,0,79.56,2.39Z"/>
    <path style="fill: #000;fill-opacity: 0.26;" d="M69.36,2.69a3.18,3.18,0,1,0,3.18,3.18A3.18,3.18,0,0,0,69.36,2.69Z"/>
  </g>
  <g>
    <path style="fill: #000;fill-opacity: 0.48;" d="M121.76,1.7a4.17,4.17,0,1,0,4.17,4.17A4.17,4.17,0,0,0,121.76,1.7Z"/>
    <path style="fill: #000;fill-opacity: 0.31;" d="M111.56,2.47A3.41,3.41,0,1,0,115,5.88,3.41,3.41,0,0,0,111.56,2.47Z"/>
    <path style="fill: #000;fill-opacity: 0.28;" d="M101.36,2.62a3.26,3.26,0,1,0,3.26,3.26A3.26,3.26,0,0,0,101.36,2.62Z"/>
  </g>
  <g>
    <path style="fill: #000;fill-opacity: 0.46;" d="M153.76,1.78a4.1,4.1,0,1,0,4.1,4.1A4.1,4.1,0,0,0,153.76,1.78Z"/>
    <path style="fill: #000;fill-opacity: 0.29;" d="M143.56,2.54a3.34,3.34,0,1,0,3.34,3.34A3.34,3.34,0,0,0,143.56,2.54Z"/>
    <path style="fill: #000;fill-opacity: 0.30;" d="M133.36,2.54a3.34,3.34,0,1,0,3.34,3.34A3.34,3.34,0,0,0,133.36,2.54Z"/>
  </g>
  <g>
    <path style="fill: #000;fill-opacity: 0.45;" d="M185.76,1.86a4,4,0,1,0,4,4A4,4,0,0,0,185.76,1.86Z"/>
    <path style="fill: #000;fill-opacity: 0.28;" d="M175.56,2.62a3.26,3.26,0,1,0,3.26,3.26A3.26,3.26,0,0,0,175.56,2.62Z"/>
    <path style="fill: #000;fill-opacity: 0.31;" d="M165.36,2.46a3.41,3.41,0,1,0,3.41,3.41A3.41,3.41,0,0,0,165.36,2.46Z"/>
  </g>
  <g>
    <path style="fill: #000;fill-opacity: 0.43;" d="M217.76,1.93a3.94,3.94,0,1,0,3.94,3.94A3.94,3.94,0,0,0,217.76,1.93Z"/>
    <path style="fill: #000;fill-opacity: 0.26;" d="M207.56,2.69a3.18,3.18,0,1,0,3.18,3.18A3.18,3.18,0,0,0,207.56,2.69Z"/>
    <path style="fill: #000;fill-opacity: 0.33;" d="M197.36,2.39a3.49,3.49,0,1,0,3.49,3.49A3.49,3.49,0,0,0,197.36,2.39Z"/>
  </g>
  <g>
    <path style="fill: #000;fill-opacity: 0.41;" d="M249.76,2a3.87,3.87,0,1,0,3.87,3.87A3.87,3.87,0,0,0,249.76,2Z"/>
    <path style="fill: #000;fill-opacity: 0.24;" d="M239.56,2.77a3.11,3.11,0,1,0,3.11,3.11A3.11,3.11,0,0,0,239.56,2.77Z"/>
    <path style="fill: #000;fill-opacity: 0.35;" d="M229.36,2.31a3.56,3.56,0,1,0,3.56,3.56A3.56,3.56,0,0,0,229.36,2.31Z"/>
  </g>
  <g>
    <path style="fill: #000;fill-opacity: 0.4;" d="M281.76,2.08a3.79,3.79,0,1,0,3.79,3.79A3.79,3.79,0,0,0,281.76,2.08Z"/>
    <path style="fill: #000;fill-opacity: 0.23;" d="M271.56,2.85a3,3,0,1,0,3,3A3,3,0,0,0,271.56,2.85Z"/>
    <path style="fill: #000;fill-opacity: 0.36;" d="M261.36,2.24A3.64,3.64,0,1,0,265,5.88,3.64,3.64,0,0,0,261.36,2.24Z"/>
  </g>
  <g>
    <path style="fill: #000;fill-opacity: 0.38;" d="M313.76,2.16a3.72,3.72,0,1,0,3.72,3.72A3.72,3.72,0,0,0,313.76,2.16Z"/>
    <path style="fill: #000;fill-opacity: 0.21;" d="M303.56,2.92a3,3,0,1,0,3,3A3,3,0,0,0,303.56,2.92Z"/>
    <path style="fill: #000;fill-opacity: 0.38;" d="M293.36,2.16a3.72,3.72,0,1,0,3.72,3.72A3.72,3.72,0,0,0,293.36,2.16Z"/>
  </g>
  <g>
    <path style="fill: #000;fill-opacity: 0.36;" d="M345.76,2.24a3.64,3.64,0,1,0,3.64,3.64A3.64,3.64,0,0,0,345.76,2.24Z"/>
    <path style="fill: #000;fill-opacity: 0.23;" d="M335.56,2.85a3,3,0,1,0,3,3A3,3,0,0,0,335.56,2.85Z"/>
    <path style="fill: #000;fill-opacity: 0.4;" d="M325.36,2.08a3.79,3.79,0,1,0,3.79,3.79A3.79,3.79,0,0,0,325.36,2.08Z"/>
  </g>
  <g>
    <path style="fill: #000;fill-opacity: 0.35;" d="M377.76,2.31a3.56,3.56,0,1,0,3.56,3.56A3.56,3.56,0,0,0,377.76,2.31Z"/>
    <path style="fill: #000;fill-opacity: 0.24;" d="M367.56,2.77a3.11,3.11,0,1,0,3.11,3.11A3.11,3.11,0,0,0,367.56,2.77Z"/>
    <path style="fill: #000;fill-opacity: 0.41;" d="M357.36,2a3.87,3.87,0,1,0,3.87,3.87A3.87,3.87,0,0,0,357.36,2Z"/>
  </g>
  <g>
    <path style="fill: #000;fill-opacity: 0.33;" d="M409.76,2.39a3.49,3.49,0,1,0,3.49,3.49A3.49,3.49,0,0,0,409.76,2.39Z"/>
    <path style="fill: #000;fill-opacity: 0.26;" d="M399.56,2.69a3.18,3.18,0,1,0,3.18,3.18A3.18,3.18,0,0,0,399.56,2.69Z"/>
    <path style="fill: #000;fill-opacity: 0.43;" d="M389.36,1.93a3.94,3.94,0,1,0,3.94,3.94A3.94,3.94,0,0,0,389.36,1.93Z"/>
  </g>
  <g>
    <path style="fill: #000;fill-opacity: 0.31;" d="M441.76,2.46a3.41,3.41,0,1,0,3.41,3.41A3.41,3.41,0,0,0,441.76,2.46Z"/>
    <path style="fill: #000;fill-opacity: 0.28;" d="M431.56,2.62a3.26,3.26,0,1,0,3.26,3.26A3.26,3.26,0,0,0,431.56,2.62Z"/>
    <path style="fill: #000;fill-opacity: 0.45;" d="M421.36,1.86a4,4,0,1,0,4,4A4,4,0,0,0,421.36,1.86Z"/>
  </g>
  <g>
    <path style="fill: #000;fill-opacity: 0.30;" d="M473.76,2.54a3.34,3.34,0,1,0,3.34,3.34A3.34,3.34,0,0,0,473.76,2.54Z"/>
    <path style="fill: #000;fill-opacity: 0.30;" d="M463.56,2.54a3.34,3.34,0,1,0,3.34,3.34A3.34,3.34,0,0,0,463.56,2.54Z"/>
    <path style="fill: #000;fill-opacity: 0.46;" d="M453.36,1.78a4.1,4.1,0,1,0,4.1,4.1A4.1,4.1,0,0,0,453.36,1.78Z"/>
  </g>
  <g>
    <path style="fill: #000;fill-opacity: 0.28;" d="M505.76,2.62A3.26,3.26,0,1,0,509,5.88,3.26,3.26,0,0,0,505.76,2.62Z"/>
    <path style="fill: #000;fill-opacity: 0.31;" d="M495.56,2.46A3.41,3.41,0,1,0,499,5.88,3.41,3.41,0,0,0,495.56,2.46Z"/>
    <path style="fill: #000;fill-opacity: 0.48;" d="M485.36,1.7a4.17,4.17,0,1,0,4.17,4.17A4.17,4.17,0,0,0,485.36,1.7Z"/>
  </g>
  <g>
    <path style="fill: #000;fill-opacity: 0.26;" d="M537.76,2.69a3.18,3.18,0,1,0,3.18,3.18A3.18,3.18,0,0,0,537.76,2.69Z"/>
    <path style="fill: #000;fill-opacity: 0.33;" d="M527.56,2.39A3.49,3.49,0,1,0,531,5.88,3.49,3.49,0,0,0,527.56,2.39Z"/>
    <path style="fill: #000;fill-opacity: 0.5;" d="M517.36,1.63a4.25,4.25,0,1,0,4.25,4.25A4.25,4.25,0,0,0,517.36,1.63Z"/>
  </g>
  <g>
    <path style="fill: #000;fill-opacity: 0.24;" d="M569.76,2.77a3.11,3.11,0,1,0,3.11,3.11A3.11,3.11,0,0,0,569.76,2.77Z"/>
    <path style="fill: #000;fill-opacity: 0.35;" d="M559.56,2.31a3.56,3.56,0,1,0,3.56,3.56A3.56,3.56,0,0,0,559.56,2.31Z"/>
    <path style="fill: #000;fill-opacity: 0.52;" d="M549.36,1.55a4.33,4.33,0,1,0,4.33,4.33A4.33,4.33,0,0,0,549.36,1.55Z"/>
  </g>
  <g>
    <path style="fill: #000;fill-opacity: 0.23;" d="M601.76,2.85a3,3,0,1,0,3,3A3,3,0,0,0,601.76,2.85Z"/>
    <path style="fill: #000;fill-opacity: 0.36;" d="M591.56,2.24a3.64,3.64,0,1,0,3.64,3.64A3.64,3.64,0,0,0,591.56,2.24Z"/>
    <path style="fill: #000;fill-opacity: 0.53;" d="M581.36,1.48a4.4,4.4,0,1,0,4.4,4.4A4.4,4.4,0,0,0,581.36,1.48Z"/>
  </g>
  <g>
    <path style="fill: #000;fill-opacity: 0.21;" d="M633.76,2.92a3,3,0,1,0,3,3A3,3,0,0,0,633.76,2.92Z"/>
    <path style="fill: #000;fill-opacity: 0.38;" d="M623.56,2.16a3.72,3.72,0,1,0,3.72,3.72A3.72,3.72,0,0,0,623.56,2.16Z"/>
    <path style="fill: #000;fill-opacity: 0.55;" d="M613.36,1.4a4.48,4.48,0,1,0,4.48,4.48A4.48,4.48,0,0,0,613.36,1.4Z"/>
  </g>
  <g>
    <path style="fill: #000;fill-opacity: 0.23;" d="M665.76,2.85a3,3,0,1,0,3,3A3,3,0,0,0,665.76,2.85Z"/>
    <path style="fill: #000;fill-opacity: 0.4;" d="M655.56,2.08a3.79,3.79,0,1,0,3.79,3.79A3.79,3.79,0,0,0,655.56,2.08Z"/>
    <path style="fill: #000;fill-opacity: 0.53;" d="M645.36,1.48a4.4,4.4,0,1,0,4.4,4.4A4.4,4.4,0,0,0,645.36,1.48Z"/>
  </g>
  <g>
    <path style="fill: #000;fill-opacity: 0.24;" d="M697.76,2.77a3.11,3.11,0,1,0,3.11,3.11A3.11,3.11,0,0,0,697.76,2.77Z"/>
    <path style="fill: #000;fill-opacity: 0.41;" d="M687.56,2a3.87,3.87,0,1,0,3.87,3.87A3.87,3.87,0,0,0,687.56,2Z"/>
    <path style="fill: #000;fill-opacity: 0.52;" d="M677.36,1.55a4.33,4.33,0,1,0,4.33,4.33A4.33,4.33,0,0,0,677.36,1.55Z"/>
  </g>
  <g>
    <path style="fill: #000;fill-opacity: 0.26;" d="M729.76,2.69a3.18,3.18,0,1,0,3.18,3.18A3.18,3.18,0,0,0,729.76,2.69Z"/>
    <path style="fill: #000;fill-opacity: 0.43;" d="M719.56,1.93a3.94,3.94,0,1,0,3.94,3.94A3.94,3.94,0,0,0,719.56,1.93Z"/>
    <path style="fill: #000;fill-opacity: 0.5;" d="M709.36,1.63a4.25,4.25,0,1,0,4.25,4.25A4.25,4.25,0,0,0,709.36,1.63Z"/>
  </g>
  <g>
    <path style="fill: #000;fill-opacity: 0.28;" d="M761.76,2.62A3.26,3.26,0,1,0,765,5.88,3.26,3.26,0,0,0,761.76,2.62Z"/>
    <path style="fill: #000;fill-opacity: 0.45;" d="M751.56,1.86a4,4,0,1,0,4,4A4,4,0,0,0,751.56,1.86Z"/>
    <path style="fill: #000;fill-opacity: 0.48;" d="M741.36,1.7a4.17,4.17,0,1,0,4.17,4.17A4.17,4.17,0,0,0,741.36,1.7Z"/>
  </g>
  <g>
    <path style="fill: #000;fill-opacity: 0.30;" d="M793.76,2.54a3.34,3.34,0,1,0,3.34,3.34A3.34,3.34,0,0,0,793.76,2.54Z"/>
    <path style="fill: #000;fill-opacity: 0.46;" d="M783.56,1.78a4.1,4.1,0,1,0,4.1,4.1A4.1,4.1,0,0,0,783.56,1.78Z"/>
    <path style="fill: #000;fill-opacity: 0.46;" d="M773.36,1.78a4.1,4.1,0,1,0,4.1,4.1A4.1,4.1,0,0,0,773.36,1.78Z"/>
  </g>
  <g>
    <path style="fill: #000;fill-opacity: 0.31;" d="M825.76,2.46a3.41,3.41,0,1,0,3.41,3.41A3.41,3.41,0,0,0,825.76,2.46Z"/>
    <path style="fill: #000;fill-opacity: 0.48;" d="M815.56,1.7a4.17,4.17,0,1,0,4.17,4.17A4.17,4.17,0,0,0,815.56,1.7Z"/>
    <path style="fill: #000;fill-opacity: 0.45;" d="M805.36,1.86a4,4,0,1,0,4,4A4,4,0,0,0,805.36,1.86Z"/>
  </g>
  <g>
    <path style="fill: #000;fill-opacity: 0.33;" d="M857.76,2.39a3.49,3.49,0,1,0,3.49,3.49A3.49,3.49,0,0,0,857.76,2.39Z"/>
    <path style="fill: #000;fill-opacity: 0.5;" d="M847.56,1.63a4.25,4.25,0,1,0,4.25,4.25A4.25,4.25,0,0,0,847.56,1.63Z"/>
    <path style="fill: #000;fill-opacity: 0.43;" d="M837.36,1.93a3.94,3.94,0,1,0,3.94,3.94A3.94,3.94,0,0,0,837.36,1.93Z"/>
  </g>
  <g>
    <path style="fill: #000;fill-opacity: 0.35;" d="M889.76,2.31a3.56,3.56,0,1,0,3.56,3.56A3.56,3.56,0,0,0,889.76,2.31Z"/>
    <path style="fill: #000;fill-opacity: 0.52;" d="M879.56,1.55a4.33,4.33,0,1,0,4.33,4.33A4.33,4.33,0,0,0,879.56,1.55Z"/>
    <path style="fill: #000;fill-opacity: 0.41;" d="M869.36,2a3.87,3.87,0,1,0,3.87,3.87A3.87,3.87,0,0,0,869.36,2Z"/>
  </g>
  <g>
    <path style="fill: #000;fill-opacity: 0.36;" d="M921.76,2.24a3.64,3.64,0,1,0,3.64,3.64A3.64,3.64,0,0,0,921.76,2.24Z"/>
    <path style="fill: #000;fill-opacity: 0.53;" d="M911.56,1.48a4.4,4.4,0,1,0,4.4,4.4A4.4,4.4,0,0,0,911.56,1.48Z"/>
    <path style="fill: #000;fill-opacity: 0.4;" d="M901.36,2.08a3.79,3.79,0,1,0,3.79,3.79A3.79,3.79,0,0,0,901.36,2.08Z"/>
  </g>
  <g>
    <path style="fill: #000;fill-opacity: 0.38;" d="M953.76,2.16a3.72,3.72,0,1,0,3.72,3.72A3.72,3.72,0,0,0,953.76,2.16Z"/>
    <path style="fill: #000;fill-opacity: 0.55;" d="M943.56,1.4A4.48,4.48,0,1,0,948,5.88,4.48,4.48,0,0,0,943.56,1.4Z"/>
    <path style="fill: #000;fill-opacity: 0.38;" d="M933.36,2.16a3.72,3.72,0,1,0,3.72,3.72A3.72,3.72,0,0,0,933.36,2.16Z"/>
  </g>
  <g>
    <path style="fill: #000;fill-opacity: 0.4;" d="M985.76,2.08a3.79,3.79,0,1,0,3.79,3.79A3.79,3.79,0,0,0,985.76,2.08Z"/>
    <path style="fill: #000;fill-opacity: 0.53;" d="M975.56,1.48a4.4,4.4,0,1,0,4.4,4.4A4.4,4.4,0,0,0,975.56,1.48Z"/>
    <path style="fill: #000;fill-opacity: 0.36;" d="M965.36,2.24A3.64,3.64,0,1,0,969,5.88,3.64,3.64,0,0,0,965.36,2.24Z"/>
  </g>
  <g>
    <path style="fill: #000;fill-opacity: 0.41;" d="M1017.76,2a3.87,3.87,0,1,0,3.87,3.87A3.87,3.87,0,0,0,1017.76,2Z"/>
    <path style="fill: #000;fill-opacity: 0.52;" d="M1007.56,1.55a4.33,4.33,0,1,0,4.33,4.33A4.33,4.33,0,0,0,1007.56,1.55Z"/>
    <path style="fill: #000;fill-opacity: 0.35;" d="M997.36,2.31a3.56,3.56,0,1,0,3.56,3.56A3.56,3.56,0,0,0,997.36,2.31Z"/>
  </g>
  <g>
    <path style="fill: #000;fill-opacity: 0.43;" d="M1049.76,1.93a3.94,3.94,0,1,0,3.94,3.94A3.94,3.94,0,0,0,1049.76,1.93Z"/>
    <path style="fill: #000;fill-opacity: 0.5;" d="M1039.56,1.63a4.25,4.25,0,1,0,4.25,4.25A4.25,4.25,0,0,0,1039.56,1.63Z"/>
    <path style="fill: #000;fill-opacity: 0.33;" d="M1029.36,2.39a3.49,3.49,0,1,0,3.49,3.49A3.49,3.49,0,0,0,1029.36,2.39Z"/>
  </g>
  <g>
    <path style="fill: #000;fill-opacity: 0.45;" d="M1081.76,1.86a4,4,0,1,0,4,4A4,4,0,0,0,1081.76,1.86Z"/>
    <path style="fill: #000;fill-opacity: 0.48;" d="M1071.56,1.7a4.17,4.17,0,1,0,4.17,4.17A4.17,4.17,0,0,0,1071.56,1.7Z"/>
    <path style="fill: #000;fill-opacity: 0.31;" d="M1061.36,2.46a3.41,3.41,0,1,0,3.41,3.41A3.41,3.41,0,0,0,1061.36,2.46Z"/>
  </g>
  <g>
    <path style="fill: #000;fill-opacity: 0.46;" d="M1113.76,1.78a4.1,4.1,0,1,0,4.1,4.1A4.1,4.1,0,0,0,1113.76,1.78Z"/>
    <path style="fill: #000;fill-opacity: 0.47;" d="M1103.56,1.78a4.1,4.1,0,1,0,4.1,4.1A4.1,4.1,0,0,0,1103.56,1.78Z"/>
    <path style="fill: #000;fill-opacity: 0.30;" d="M1093.36,2.54a3.34,3.34,0,1,0,3.34,3.34A3.34,3.34,0,0,0,1093.36,2.54Z"/>
  </g>
  <g>
    <path style="fill: #000;fill-opacity: 0.48;" d="M1145.76,1.7a4.17,4.17,0,1,0,4.17,4.17A4.17,4.17,0,0,0,1145.76,1.7Z"/>
    <path style="fill: #000;fill-opacity: 0.45;" d="M1135.56,1.86a4,4,0,1,0,4,4A4,4,0,0,0,1135.56,1.86Z"/>
    <path style="fill: #000;fill-opacity: 0.28;" d="M1125.36,2.62a3.26,3.26,0,1,0,3.26,3.26A3.26,3.26,0,0,0,1125.36,2.62Z"/>
  </g>
  <g>
    <path style="fill: #000;fill-opacity: 0.5;" d="M1177.76,1.63A4.25,4.25,0,1,0,1182,5.88,4.25,4.25,0,0,0,1177.76,1.63Z"/>
    <path style="fill: #000;fill-opacity: 0.43;" d="M1167.56,1.93a3.95,3.95,0,1,0,3.95,3.95A3.95,3.95,0,0,0,1167.56,1.93Z"/>
    <path style="fill: #000;fill-opacity: 0.26;" d="M1157.36,2.69a3.18,3.18,0,1,0,3.18,3.18A3.18,3.18,0,0,0,1157.36,2.69Z"/>
  </g>
  <g>
    <path style="fill: #000;fill-opacity: 0.52;" d="M1209.76,1.55a4.33,4.33,0,1,0,4.33,4.33A4.33,4.33,0,0,0,1209.76,1.55Z"/>
    <path style="fill: #000;fill-opacity: 0.41;" d="M1199.56,2a3.87,3.87,0,1,0,3.87,3.87A3.87,3.87,0,0,0,1199.56,2Z"/>
    <path style="fill: #000;fill-opacity: 0.24;" d="M1189.36,2.77a3.11,3.11,0,1,0,3.11,3.11A3.11,3.11,0,0,0,1189.36,2.77Z"/>
  </g>
  <g>
    <path style="fill: #000;fill-opacity: 0.53;" d="M1241.76,1.48a4.4,4.4,0,1,0,4.4,4.4A4.4,4.4,0,0,0,1241.76,1.48Z"/>
    <path style="fill: #000;fill-opacity: 0.4;" d="M1231.56,2.08a3.79,3.79,0,1,0,3.79,3.79A3.79,3.79,0,0,0,1231.56,2.08Z"/>
    <path style="fill: #000;fill-opacity: 0.23;" d="M1221.36,2.85a3,3,0,1,0,3,3A3,3,0,0,0,1221.36,2.85Z"/>
  </g>
  <g>
    <path style="fill: #000;fill-opacity: 0.55;" d="M1273.82,1.4a4.48,4.48,0,1,0,4.48,4.48A4.48,4.48,0,0,0,1273.82,1.4Z"/>
    <path style="fill: #000;fill-opacity: 0.38;" d="M1263.62,2.16a3.72,3.72,0,1,0,3.72,3.72A3.72,3.72,0,0,0,1263.62,2.16Z"/>
    <path style="fill: #000;fill-opacity: 0.21;" d="M1253.42,2.92a3,3,0,1,0,3,3A3,3,0,0,0,1253.42,2.92Z"/>
  </g>
</svg>
