<?xml version="1.0" encoding="utf-8"?>
<!-- Generator: Adobe Illustrator 16.0.3, SVG Export Plug-In . SVG Version: 6.00 Build 0)  -->
<svg version="1.1" id="Layer_1" 
	 xmlns="http://www.w3.org/2000/svg" xmlns:xlink="http://www.w3.org/1999/xlink" x="0px" y="0px" width="40px" height="40px"
	 viewBox="0 0 40 40" enable-background="new 0 0 40 40" xml:space="preserve">
<switch>
	<g>
		<g>
			<path fill-rule="evenodd" clip-rule="evenodd" d="M39,10V9c0-1.47-0.48-2-2-2H3C1.47,7,1,7.52,1,9v1c0,1.55,0.52,2,2,2h34
				C38.5,12,39,11.52,39,10z"/>
		</g>
		<g>
			<path fill-rule="evenodd" clip-rule="evenodd" d="M39,21v-1c0-1.47-0.48-2-2-2H3c-1.53,0-2,0.52-2,2v1c0,1.55,0.52,2,2,2h34
				C38.5,23,39,22.52,39,21z"/>
		</g>
		<g>
			<path fill-rule="evenodd" clip-rule="evenodd" d="M39,32v-1c0-1.471-0.48-2-2-2H3c-1.53,0-2,0.52-2,2v1c0,1.55,0.52,2,2,2h34
				C38.5,34,39,33.52,39,32z"/>
		</g>
	</g>
</switch>
</svg>
